<?xml version="1.0" standalone="no"?>
<!DOCTYPE svg PUBLIC "-//W3C//DTD SVG 20010904//EN"
 "http://www.w3.org/TR/2001/REC-SVG-20010904/DTD/svg10.dtd">
<svg version="1.0" xmlns="http://www.w3.org/2000/svg"
 width="720.000000pt" height="1600.000000pt" viewBox="0 0 720.000000 1600.000000"
 preserveAspectRatio="xMidYMid meet">

<g transform="translate(0.000000,1600.000000) scale(0.100000,-0.100000)"
fill="#000000" stroke="none">
<path d="M0 15755 c0 -157 4 -245 10 -245 6 0 10 -7 10 -15 0 -8 -4 -15 -10
-15 -5 0 -10 -7 -10 -15 0 -21 24 -19 45 5 13 14 15 23 7 33 -6 7 -7 18 -3 25
8 14 23 2 34 -28 4 -12 6 -11 6 3 1 9 9 17 19 17 10 0 28 9 41 21 12 12 25 18
28 15 4 -3 14 1 24 10 16 14 18 13 24 -17 4 -19 15 -33 26 -36 10 -3 19 -14
19 -24 0 -24 15 -24 40 1 24 24 16 54 -11 46 -11 -3 -28 -9 -39 -12 -25 -8
-27 11 -2 20 67 24 72 24 96 5 28 -22 46 -24 46 -6 0 6 8 3 16 -8 16 -20 16
-20 10 2 -9 30 9 38 34 13 19 -19 20 -19 20 -1 0 31 41 34 70 6 41 -39 92 -29
104 20 9 36 27 21 19 -15 -7 -39 14 -40 23 -2 4 15 13 36 21 47 l15 20 -5 -20
c-3 -11 -8 -31 -12 -45 -5 -19 -4 -21 4 -10 8 12 13 12 23 2 6 -6 23 -12 36
-12 19 0 23 -4 18 -17 -4 -12 2 -8 17 8 12 14 30 29 40 32 18 7 24 37 6 37 -5
0 -8 4 -5 9 3 5 25 8 47 7 35 -2 43 -6 53 -31 l12 -29 17 24 16 23 20 -24 20
-24 1 33 c0 25 -4 32 -19 32 -11 0 -22 4 -25 9 -8 12 38 41 66 41 17 0 19 3 9
9 -23 15 -3 31 24 21 18 -7 25 -6 25 3 1 7 5 6 13 -4 9 -13 16 -14 30 -5 13 8
20 8 26 -2 5 -9 38 -13 104 -14 81 -1 99 1 110 16 11 16 14 14 35 -13 24 -33
52 -40 71 -17 13 16 -4 26 -45 26 -15 0 -24 6 -24 16 0 15 10 14 56 -3 7 -2
15 0 19 6 3 6 0 11 -8 11 -8 0 -20 7 -27 15 -10 12 -6 15 29 21 39 6 40 7 43
53 3 48 7 50 54 36 16 -5 23 -2 27 15 5 18 8 19 25 9 14 -9 30 -9 58 -2 23 5
55 6 78 1 29 -6 42 -5 49 4 5 9 7 3 4 -15 -4 -25 -2 -28 17 -23 11 3 27 6 34
6 6 0 12 9 12 20 0 25 17 25 53 1 21 -13 25 -20 15 -25 -7 -3 13 -3 45 0 56 5
57 5 57 -21 0 -16 4 -24 11 -19 7 4 9 22 4 50 -7 50 8 60 27 18 10 -22 16 -25
42 -19 33 6 50 7 96 1 17 -2 36 -4 44 -5 8 0 16 -8 18 -18 3 -15 4 -15 17 0
12 15 11 17 -3 17 -9 0 -16 5 -16 10 0 6 6 10 14 10 8 0 18 -4 21 -10 3 -5 17
-10 31 -10 21 0 24 3 18 26 -6 22 -4 25 12 22 11 -2 23 -13 29 -26 5 -12 13
-22 17 -22 5 0 17 -9 28 -20 11 -11 25 -20 30 -20 6 0 19 9 30 20 35 35 120
21 120 -20 0 -11 4 -20 9 -20 20 0 41 13 41 25 0 14 69 10 100 -5 8 -4 35 -11
58 -15 43 -7 44 -7 32 15 -17 32 -7 34 24 4 23 -24 31 -26 79 -21 37 3 58 1
72 -9 10 -8 27 -11 37 -8 30 9 78 -6 78 -24 1 -16 2 -15 14 1 7 9 19 17 26 17
7 0 19 -8 26 -17 10 -15 15 -16 26 -5 18 18 -5 32 -54 32 -27 0 -38 4 -38 15
0 11 11 15 40 15 29 0 40 4 40 15 0 12 -14 15 -65 15 -51 0 -65 3 -65 15 0 8
5 15 10 15 6 0 10 -4 10 -10 0 -5 4 -10 9 -10 6 0 12 19 14 43 l4 42 1 -42 c1
-31 6 -43 17 -43 11 0 15 11 15 40 0 36 3 40 25 40 29 0 34 24 8 39 -17 10
-17 12 1 26 18 14 11 15 -80 15 -84 -1 -96 -3 -81 -14 26 -20 21 -32 -15 -34
-18 0 -50 -4 -71 -7 -43 -8 -52 9 -9 18 15 3 36 12 47 20 17 13 8 15 -93 16
-99 1 -112 0 -112 -15 0 -10 7 -25 16 -35 19 -21 11 -39 -17 -39 -13 0 -19 7
-19 24 0 13 -7 29 -15 36 -13 11 -15 8 -15 -19 0 -41 -11 -39 -40 9 l-25 39
-1367 1 -1368 0 0 -245z m2904 194 c-8 -14 -24 -10 -24 6 0 9 6 12 15 9 8 -4
12 -10 9 -15z m-1244 -38 c0 -6 -4 -13 -10 -16 -5 -3 -10 1 -10 9 0 9 5 16 10
16 6 0 10 -4 10 -9z m1240 0 c0 -6 -4 -13 -10 -16 -5 -3 -10 1 -10 9 0 9 5 16
10 16 6 0 10 -4 10 -9z m270 -1 c0 -5 -4 -10 -10 -10 -5 0 -10 5 -10 10 0 6 5
10 10 10 6 0 10 -4 10 -10z m-1715 -10 c3 -5 1 -10 -4 -10 -6 0 -11 5 -11 10
0 6 2 10 4 10 3 0 8 -4 11 -10z m152 -22 c-3 -7 -5 -2 -5 12 0 14 2 19 5 13 2
-7 2 -19 0 -25z m103 6 c0 -2 -7 -4 -15 -4 -8 0 -15 4 -15 10 0 5 7 7 15 4 8
-4 15 -8 15 -10z m1417 -16 c-3 -7 -5 -2 -5 12 0 14 2 19 5 13 2 -7 2 -19 0
-25z m-1237 2 c0 -11 -4 -20 -10 -20 -5 0 -10 9 -10 20 0 11 5 20 10 20 6 0
10 -9 10 -20z m1190 0 c0 -5 -9 -10 -20 -10 -11 0 -20 5 -20 10 0 6 9 10 20
10 11 0 20 -4 20 -10z m-1020 -10 c0 -5 -4 -10 -10 -10 -5 0 -10 5 -10 10 0 6
5 10 10 10 6 0 10 -4 10 -10z m-683 -32 c22 -21 23 -21 43 -3 11 10 20 13 20
8 0 -18 29 -23 44 -8 8 8 18 15 23 15 12 0 13 -53 1 -67 -12 -15 -68 -18 -68
-4 0 5 9 7 20 4 14 -4 20 0 20 11 0 13 -11 16 -60 16 -47 0 -60 3 -60 15 0 8
-7 15 -16 15 -8 0 -12 5 -9 10 9 15 16 13 42 -12z m50 -64 c3 -8 1 -20 -5 -26
-8 -8 -13 -7 -18 5 -3 9 -13 17 -21 17 -8 0 -11 5 -8 10 10 16 45 12 52 -6z
m-412 -74 c3 -5 -1 -10 -10 -10 -9 0 -13 5 -10 10 3 6 8 10 10 10 2 0 7 -4 10
-10z m-115 -24 c0 -8 -4 -18 -10 -21 -5 -3 -10 3 -10 14 0 12 5 21 10 21 6 0
10 -6 10 -14z m41 -19 c-1 -12 -15 -9 -19 4 -3 6 1 10 8 8 6 -3 11 -8 11 -12z
m-624 -54 c-7 -6 -46 10 -41 18 3 5 14 3 24 -3 11 -7 18 -13 17 -15z m291 -15
c-5 -16 -48 -24 -48 -10 0 11 17 20 38 21 8 1 12 -5 10 -11z m-348 -8 c0 -5
-4 -10 -10 -10 -5 0 -10 5 -10 10 0 6 5 10 10 10 6 0 10 -4 10 -10z m37 -56
c-3 -3 -12 -4 -19 -1 -8 3 -5 6 6 6 11 1 17 -2 13 -5z"/>
<path d="M3495 15990 c3 -5 10 -10 16 -10 5 0 9 5 9 10 0 6 -7 10 -16 10 -8 0
-12 -4 -9 -10z"/>
<path d="M7050 15823 c-24 -98 -45 -182 -46 -188 -2 -5 -9 -35 -17 -65 -8 -30
-35 -125 -60 -210 -24 -85 -47 -171 -51 -190 -3 -19 -15 -64 -26 -100 -11 -36
-39 -146 -64 -245 -43 -180 -67 -269 -111 -420 -13 -44 -27 -98 -31 -120 -9
-47 -9 -46 -16 -65 -5 -12 -49 -196 -53 -220 -10 -55 -18 -90 -25 -110 -5 -14
-25 -86 -45 -160 -48 -176 -73 -258 -90 -297 -15 -34 -33 -41 -125 -46 -25 -1
-48 -5 -51 -9 -4 -7 -98 -16 -216 -22 -13 0 -23 -5 -23 -9 0 -5 -8 -6 -18 -3
-10 4 -54 0 -97 -9 -43 -8 -89 -12 -102 -9 -13 4 -23 2 -23 -4 0 -6 -8 -8 -19
-5 -21 5 -37 -12 -21 -22 7 -4 7 -12 0 -25 -13 -24 -1 -31 40 -26 41 5 109
-13 139 -36 13 -10 42 -21 63 -25 76 -12 15 -23 -97 -17 -151 8 -224 37 -189
75 13 15 13 17 -1 23 -21 8 -35 -1 -35 -22 -1 -16 -2 -16 -13 0 -13 16 -66 14
-77 -3 -3 -5 -64 -11 -134 -14 -121 -5 -166 -14 -166 -34 0 -12 40 -24 73 -22
16 1 34 -2 41 -8 27 -23 207 -42 268 -29 25 5 52 3 80 -6 24 -8 69 -17 100
-20 32 -3 83 -13 115 -22 32 -8 76 -17 98 -20 99 -10 132 -17 160 -32 16 -9
73 -30 125 -48 94 -31 95 -32 65 -44 -16 -6 -69 -13 -117 -13 -47 -1 -90 -5
-94 -9 -4 -4 -13 -3 -21 3 -7 6 -22 9 -33 6 -11 -3 -39 0 -62 5 -24 6 -73 10
-110 10 -37 -1 -70 3 -73 8 -4 6 -26 10 -51 10 -25 0 -53 4 -63 9 -10 6 -46
11 -82 12 -35 1 -66 6 -69 10 -7 10 -130 30 -142 23 -5 -3 -38 -2 -75 2 -52 5
-71 12 -89 31 -13 14 -28 22 -34 18 -7 -4 -18 2 -26 14 -8 12 -26 21 -39 21
-13 0 -25 4 -27 9 -1 6 -34 16 -71 24 -58 12 -70 12 -74 0 -8 -20 -23 -15 -23
8 0 16 -4 19 -17 14 -10 -4 -34 -9 -53 -10 -64 -4 -195 -27 -204 -36 -6 -5
-20 -9 -32 -9 -13 0 -25 -4 -29 -9 -8 -14 -155 -53 -210 -56 -5 0 -15 -4 -22
-8 -7 -4 -25 5 -44 23 -19 16 -41 30 -51 30 -9 0 -29 11 -44 25 -15 14 -31 25
-35 25 -4 0 -20 11 -35 25 -15 14 -35 25 -45 25 -11 0 -19 7 -19 15 0 15 -25
21 -34 7 -2 -4 -1 -35 3 -70 6 -52 5 -62 -8 -62 -8 0 -39 -6 -68 -12 -83 -19
-69 -47 45 -88 54 -21 36 -59 -38 -79 -25 -7 -61 -19 -80 -28 -34 -16 -85 -19
-121 -8 -10 4 -25 -2 -37 -15 -12 -13 -32 -21 -53 -22 -29 0 -78 -19 -149 -57
-48 -26 -61 -31 -77 -31 -10 0 -40 -11 -67 -25 -27 -14 -57 -25 -67 -25 -10 0
-21 -4 -24 -10 -3 -5 -21 -10 -40 -10 -19 0 -36 -4 -39 -9 -7 -10 -62 -21
-119 -24 -21 -1 -41 -8 -46 -15 -9 -15 -110 -44 -124 -35 -6 3 -16 -2 -23 -12
-8 -11 -19 -15 -30 -11 -9 3 -23 1 -31 -6 -22 -18 -84 -40 -110 -40 -13 0 -23
-5 -23 -10 0 -6 -12 -8 -26 -5 -16 3 -28 0 -31 -9 -7 -19 -27 -18 -63 4 -32
20 -30 32 7 32 12 0 23 4 23 9 0 13 -121 59 -141 54 -17 -5 -17 -7 -2 -29 8
-13 24 -24 34 -24 21 0 35 -18 23 -30 -13 -13 -95 10 -101 27 -8 20 4 28 22
13 8 -7 15 -8 15 -3 0 21 -106 56 -167 54 -12 0 -34 4 -48 9 -18 7 -25 6 -25
-3 0 -8 -4 -7 -10 3 -8 13 -11 13 -22 -1 -27 -35 -102 -33 -113 2 -11 33 -46
60 -62 48 -7 -6 -13 -17 -13 -24 0 -8 -6 -15 -12 -18 -10 -3 -10 -10 2 -33 8
-16 16 -32 18 -36 2 -5 -4 -8 -12 -8 -9 0 -16 6 -16 13 0 14 -43 31 -102 42
-30 5 -38 3 -38 -9 0 -12 23 -26 50 -31 3 0 27 -11 54 -23 33 -15 53 -19 59
-13 10 10 57 -30 57 -48 0 -10 52 -57 71 -64 13 -4 15 -1 12 14 -5 17 -1 18
28 13 29 -5 32 -4 17 8 -9 7 -25 18 -35 24 -13 8 -3 8 37 0 30 -6 71 -21 91
-33 20 -13 46 -23 58 -23 11 0 21 -4 21 -9 0 -15 -15 -21 -29 -12 -7 5 -28 0
-49 -10 -20 -11 -42 -19 -49 -19 -7 0 -13 -7 -13 -15 0 -8 -9 -15 -19 -15 -10
0 -21 -7 -25 -15 -3 -8 -17 -20 -31 -25 -14 -5 -25 -14 -25 -20 0 -5 -10 -10
-22 -10 -51 1 -88 -12 -88 -31 0 -26 -30 -39 -94 -39 -44 0 -57 4 -65 19 -13
23 -77 37 -97 20 -22 -18 -17 -36 16 -49 35 -14 37 -43 5 -48 -11 -2 -27 -10
-35 -17 -14 -12 -82 -24 -137 -25 -12 0 -43 16 -69 35 -25 19 -50 35 -55 35
-5 0 -9 5 -9 10 0 23 -82 80 -115 80 -7 0 -15 9 -18 20 -3 11 -17 24 -31 30
-14 5 -26 14 -26 20 0 5 -6 10 -13 10 -7 0 -26 14 -42 30 -32 34 -53 37 -96
14 l-30 -15 18 -32 c11 -18 28 -33 39 -35 52 -8 67 -15 103 -50 22 -20 48 -53
58 -72 14 -24 28 -36 46 -38 31 -4 36 12 10 28 -26 16 32 3 74 -17 18 -8 37
-12 42 -8 6 3 11 0 11 -8 0 -7 -11 -20 -25 -27 -14 -7 -25 -17 -25 -21 0 -11
-110 -33 -151 -30 -20 1 -40 -2 -44 -9 -4 -6 -20 -8 -42 -4 -30 6 -35 4 -30
-9 6 -16 -10 -21 -125 -42 -21 -4 -38 -11 -38 -16 0 -5 -12 -9 -27 -9 -14 0
-35 -7 -45 -16 -15 -15 -61 -24 -120 -25 -9 0 -20 -9 -23 -20 -7 -20 -39 -26
-50 -9 -10 16 -48 12 -42 -4 8 -19 -13 -36 -44 -36 -15 0 -29 -5 -31 -12 -3
-7 -19 -11 -40 -10 -23 2 -42 -4 -52 -14 -12 -11 -25 -14 -48 -9 -28 7 -30 5
-25 -15 5 -21 3 -22 -29 -17 -26 5 -37 1 -48 -14 -13 -19 -16 -20 -57 -6 -45
15 -63 9 -52 -19 3 -8 -6 -16 -24 -20 -15 -4 -31 -12 -34 -17 -9 -13 -69 -17
-69 -5 0 6 -7 8 -15 4 -8 -3 -15 -1 -15 5 0 7 -10 8 -28 4 -56 -16 -102 -6
-169 35 l-33 20 0 -43 0 -42 56 1 c36 1 60 -4 70 -13 21 -22 8 -33 -40 -33
-28 0 -51 -7 -64 -19 l-22 -18 0 -5792 0 -5791 3600 0 3600 0 0 6030 0 6030
-39 0 c-22 0 -41 5 -44 13 -3 8 -10 6 -21 -8 -16 -20 -16 -20 -31 0 -11 14
-18 16 -23 8 -10 -16 -62 -4 -70 16 -5 11 -9 5 -13 -19 -6 -31 -7 -33 -14 -12
-7 22 -25 31 -25 12 0 -14 -27 -12 -33 3 -3 7 -20 -5 -45 -31 l-41 -44 -3 39
c-3 37 -4 36 -29 -39 -18 -53 -23 -79 -15 -82 6 -2 1 -5 -11 -5 -20 -1 -23 4
-24 37 l-1 37 -9 -32 c-10 -34 -24 -43 -32 -20 -2 6 -8 9 -12 5 -4 -4 -3 -14
3 -21 13 -15 6 -27 -15 -27 -7 0 -13 9 -13 20 0 17 -7 20 -38 20 -25 0 -45 -7
-55 -18 -21 -23 -21 -32 -2 -32 8 0 15 9 15 20 0 11 4 20 8 20 15 0 30 -22 25
-36 -3 -8 0 -21 7 -29 10 -13 8 -15 -14 -15 -14 0 -26 -3 -26 -8 0 -4 -18 -7
-40 -7 -22 0 -40 3 -40 7 0 5 -7 8 -15 8 -8 0 -15 -7 -15 -15 0 -20 -17 -19
-29 3 -9 14 -12 15 -20 3 -12 -19 -82 -6 -75 14 5 11 -10 15 -73 17 l-78 3 2
28 c1 15 -2 27 -8 27 -5 0 -9 -13 -9 -29 0 -26 -3 -29 -40 -33 -22 -2 -45 1
-50 6 -6 6 -15 4 -26 -4 -14 -12 -17 -11 -26 4 -8 13 -12 15 -18 6 -5 -7 -9 0
-12 19 -4 25 -1 31 14 31 14 0 18 8 18 40 0 22 -4 40 -10 40 -5 0 -10 -10 -10
-21 0 -18 -2 -19 -15 -9 -8 7 -12 16 -9 21 3 5 -9 9 -25 9 -26 0 -31 -4 -31
-23 0 -25 -28 -57 -48 -57 -7 0 -12 5 -12 10 0 6 -4 10 -10 10 -5 0 -10 -7
-10 -15 0 -14 -59 -22 -137 -17 -13 0 -23 -3 -23 -9 0 -5 -8 -9 -17 -9 -9 0
-24 -7 -34 -16 -14 -13 -21 -13 -37 -3 -18 12 -24 10 -47 -15 -15 -17 -20 -26
-11 -23 11 5 16 1 16 -13 0 -10 -4 -22 -10 -25 -15 -9 -52 15 -46 31 4 10 -3
14 -24 14 -17 0 -30 4 -30 8 0 14 -110 37 -182 37 -50 1 -72 6 -87 19 -17 15
-23 16 -36 6 -12 -10 -15 -10 -15 5 0 9 -6 15 -12 12 -7 -2 -12 -10 -11 -16 2
-6 -9 -11 -23 -11 -14 0 -23 4 -20 9 4 5 3 16 0 25 -5 14 -9 14 -34 1 -39 -20
-75 -20 -40 0 25 14 25 14 3 15 -18 0 -23 6 -23 25 0 23 -4 25 -40 25 -33 0
-40 -3 -40 -20 0 -24 -5 -24 -50 -1 -30 17 -37 17 -56 4 -13 -8 -44 -16 -71
-18 -26 -2 -69 -7 -95 -11 -34 -5 -48 -3 -48 5 0 15 45 32 65 25 8 -4 15 -1
15 4 0 6 -10 13 -22 15 -20 4 -20 4 4 6 15 0 30 5 33 11 3 5 18 9 32 8 15 -2
28 2 30 8 2 6 15 9 29 6 20 -3 22 -7 13 -18 -22 -27 1 -27 25 -1 14 15 34 27
45 27 25 0 51 10 51 20 0 4 -10 11 -22 15 -20 6 -18 8 19 17 47 12 88 4 63
-12 -10 -7 2 -8 35 -4 28 4 55 12 60 19 6 6 34 18 63 25 29 6 59 19 67 27 9 9
23 12 36 8 12 -4 25 -1 32 7 7 8 38 22 70 33 38 12 53 21 45 27 -10 6 -8 8 4
8 10 0 24 12 32 28 8 15 17 26 20 25 16 -7 26 -1 26 15 0 11 8 18 23 19 44 4
66 13 61 26 -3 8 1 14 8 15 7 1 24 3 38 4 14 2 29 12 34 24 10 21 87 51 104
40 5 -3 15 1 22 9 7 8 16 12 21 9 5 -3 26 3 46 13 31 15 61 17 161 16 90 -2
122 1 122 10 0 8 3 8 9 -2 6 -9 21 -12 45 -9 26 3 36 0 36 -10 0 -10 12 -13
43 -12 82 3 99 1 104 -18 3 -14 12 -17 46 -13 23 2 45 8 48 14 4 5 12 0 19
-13 9 -16 17 -20 36 -16 15 4 24 2 24 -5 0 -8 20 -10 71 -5 38 3 68 2 65 -2
-2 -4 0 -14 5 -22 8 -13 10 -13 18 -1 9 14 81 25 81 13 0 -4 16 -8 36 -9 30
-1 35 1 29 15 -4 11 -3 13 3 7 6 -5 12 -19 14 -29 1 -11 5 -18 8 -17 3 1 18
-3 34 -9 23 -8 31 -8 38 2 6 8 7 5 3 -10 -6 -20 -4 -23 12 -20 10 2 17 10 16
16 -2 7 4 12 12 12 9 0 18 -12 22 -30 4 -24 8 -28 19 -19 8 6 11 15 8 20 -3 5
2 6 11 3 8 -4 22 -1 29 5 10 8 16 9 21 1 8 -13 55 -13 55 0 0 14 27 12 33 -2
4 -10 6 -10 6 0 2 28 30 10 39 -25 l9 -38 12 28 c7 18 11 108 11 257 l0 230
-22 4 c-13 3 -45 7 -72 10 -28 4 -53 12 -58 19 -6 9 -8 9 -8 -1 0 -9 -5 -10
-17 -4 -10 6 -45 10 -77 10 -43 0 -62 5 -68 16 -5 9 -18 16 -29 16 -11 0 -34
7 -51 16 -42 21 -22 39 40 35 70 -4 341 -39 352 -46 6 -4 10 108 10 303 0 303
0 310 -20 315 -12 3 -35 1 -53 -4 -17 -5 -86 -9 -153 -9 -67 0 -145 -5 -174
-10 -29 -6 -56 -7 -59 -4 -3 3 -5 31 -5 62 2 72 31 188 65 254 5 10 9 29 9 43
0 13 11 58 25 99 14 41 25 86 25 100 0 14 5 28 10 31 6 3 10 14 10 24 0 21 59
202 71 216 4 6 12 35 18 65 10 59 11 63 66 245 19 66 49 170 64 232 16 61 35
121 41 133 7 13 13 32 15 44 2 11 12 59 24 106 19 79 21 112 21 493 l0 407
-54 0 -53 0 -43 -177z m-2492 -3204 c2 -5 21 -9 43 -9 21 0 39 -4 39 -9 0 -5
28 -7 62 -6 53 3 65 0 80 -18 l18 -20 0 22 c0 18 4 21 22 15 12 -3 34 -7 48
-8 15 -1 34 -7 42 -14 8 -6 18 -9 21 -6 3 3 27 7 54 9 35 2 55 -2 76 -17 15
-11 34 -17 42 -14 24 9 18 -23 -7 -45 -27 -21 -48 -24 -48 -6 0 8 -3 9 -8 1
-8 -13 -99 -28 -159 -26 -36 1 -43 -2 -43 -18 0 -12 -7 -20 -16 -20 -22 0 -48
-27 -31 -33 6 -2 -5 -8 -27 -12 -28 -6 -40 -4 -47 6 -7 11 -9 10 -9 -3 0 -10
-4 -19 -10 -19 -5 -1 -14 -2 -19 -3 -5 0 -13 -4 -17 -8 -14 -15 -24 -8 -25 20
-1 21 -2 22 -6 7 -6 -25 -21 -35 -51 -35 -13 0 -33 -11 -46 -24 -23 -26 -84
-34 -97 -13 -5 6 -18 6 -38 -1 -32 -11 -60 -7 -73 12 -4 6 -8 -1 -8 -16 0 -20
5 -28 18 -28 15 -1 15 -2 -3 -16 -18 -14 -21 -13 -30 8 -16 37 -30 49 -44 35
-17 -17 -32 10 -21 39 8 19 5 23 -13 26 -12 2 -32 -5 -44 -16 -13 -11 -23 -14
-23 -8 0 7 -6 12 -14 12 -7 0 -19 13 -26 30 -15 37 -40 60 -40 36 0 -20 -24
-21 -40 -1 -7 8 -19 15 -26 15 -8 0 -14 5 -14 11 0 8 14 10 43 6 23 -3 35 -3
27 0 -8 3 -20 12 -27 19 -11 10 -10 15 4 23 19 10 18 11 -34 27 -7 2 -13 9
-13 15 0 8 13 10 40 6 22 -3 40 -1 40 4 0 5 -4 9 -10 9 -6 0 -5 10 2 26 9 19
17 24 32 20 12 -3 29 -6 39 -6 9 0 17 -7 17 -15 0 -12 5 -13 27 -4 14 5 32 17
39 27 13 16 13 16 14 0 0 -21 0 -21 37 -7 15 5 66 12 113 15 48 2 87 9 89 15
4 13 74 2 79 -12z m-698 -49 c0 -5 9 -10 20 -10 11 0 20 -7 20 -15 0 -8 5 -15
10 -15 6 0 10 -11 10 -25 0 -16 -6 -25 -16 -25 -8 0 -12 -5 -8 -11 4 -8 9 -8
17 0 6 6 17 11 24 11 11 0 11 -4 2 -22 -10 -18 -8 -24 7 -35 10 -7 26 -13 36
-13 27 0 22 -18 -12 -35 -44 -23 -63 -19 -98 21 -25 28 -32 45 -32 76 0 35 2
40 20 35 30 -8 34 10 5 29 -25 16 -34 44 -15 44 6 0 10 -4 10 -10z m-100 -25
c0 -8 14 -28 30 -43 22 -22 30 -38 30 -65 0 -19 6 -37 13 -40 6 -3 -8 -3 -33
-1 -25 2 -37 1 -27 -2 21 -7 23 -34 2 -34 -21 0 -19 -30 3 -31 13 0 14 -2 2
-6 -8 -3 -18 -11 -22 -17 -5 -8 -11 -7 -20 2 -13 13 -143 17 -134 4 2 -4 0
-14 -5 -22 -8 -13 -10 -13 -19 0 -12 19 -13 30 -1 30 5 0 12 36 16 79 8 94 27
122 71 103 29 -14 85 -5 62 9 -7 5 -25 9 -40 9 -40 0 -34 15 10 27 53 15 62
15 62 -2z m-170 -19 c0 -3 -4 -8 -10 -11 -5 -3 -10 -1 -10 4 0 6 5 11 10 11 6
0 10 -2 10 -4z m-5 -36 c3 -5 -1 -10 -10 -10 -9 0 -13 5 -10 10 3 6 8 10 10
10 2 0 7 -4 10 -10z m1395 -30 c0 -5 -4 -10 -10 -10 -5 0 -10 5 -10 10 0 6 5
10 10 10 6 0 10 -4 10 -10z m-2443 -16 c-3 -3 -12 -4 -19 -1 -8 3 -5 6 6 6 11
1 17 -2 13 -5z m1023 -68 c0 -50 -17 -86 -33 -69 -4 3 -7 1 -7 -5 0 -7 -6 -12
-13 -12 -8 0 -14 7 -14 15 0 8 9 15 20 15 18 0 19 5 14 55 -5 50 -4 55 14 55
16 0 19 -7 19 -54z m290 -41 c9 -10 9 -15 1 -15 -6 0 -11 4 -11 9 0 5 -8 12
-17 14 -15 4 -15 5 -2 6 9 0 22 -6 29 -14z m-410 -5 c0 -5 -8 -10 -17 -10 -15
0 -16 2 -3 10 19 12 20 12 20 0z m-60 -14 c0 -3 -4 -8 -10 -11 -5 -3 -10 -1
-10 4 0 6 5 11 10 11 6 0 10 -2 10 -4z m780 -7 c0 -6 -9 -13 -20 -16 -12 -3
-20 -14 -20 -25 0 -17 5 -19 33 -14 17 3 46 2 62 -3 l30 -9 -35 -1 -35 -2 25
-14 c14 -8 22 -14 18 -15 -5 0 -9 1 -10 2 -2 1 -13 -4 -25 -11 -13 -6 -23 -8
-23 -3 0 6 -9 12 -20 15 -11 3 -20 12 -20 21 0 9 -8 16 -20 16 -11 0 -20 2
-20 4 0 2 -3 11 -6 20 -5 12 0 16 20 16 16 0 26 6 26 15 0 8 9 15 20 15 11 0
20 -5 20 -11z m-320 -19 c0 -5 -9 -10 -20 -10 -11 0 -20 5 -20 10 0 6 9 10 20
10 11 0 20 -4 20 -10z m-2322 -95 c12 -11 -5 -11 -43 2 l-40 13 39 -4 c21 -3
41 -8 44 -11z m5408 -257 c4 -6 -2 -19 -15 -29 -21 -17 -23 -17 -40 -1 -11 10
-14 21 -9 27 6 6 12 5 18 -5 8 -12 10 -12 16 3 7 20 20 22 30 5z m-981 -18 c3
-5 2 -10 -4 -10 -5 0 -13 5 -16 10 -3 6 -2 10 4 10 5 0 13 -4 16 -10z m892 -6
c-3 -3 -12 -4 -19 -1 -8 3 -5 6 6 6 11 1 17 -2 13 -5z m-57 -53 c0 -11 6 -22
13 -24 6 -3 -12 -3 -41 0 -40 5 -56 2 -63 -8 -7 -11 -9 -11 -9 4 0 9 8 17 18
17 9 0 26 7 36 15 27 21 46 19 46 -4z m116 6 c4 -4 20 -7 36 -7 15 0 28 -5 28
-10 0 -6 12 -8 28 -5 22 4 23 4 7 -4 -11 -5 -32 -6 -47 -4 -21 4 -28 2 -28
-11 0 -22 -12 -20 -33 4 -9 11 -25 19 -34 19 -17 -1 -17 -2 0 -6 14 -4 16 -8
6 -19 -6 -8 -15 -14 -20 -14 -13 0 -42 48 -35 59 7 10 81 9 92 -2z m-1296 -17
c0 -5 -4 -10 -10 -10 -5 0 -10 5 -10 10 0 6 5 10 10 10 6 0 10 -4 10 -10z
m-1857 -289 c56 -23 57 -24 57 -63 0 -23 8 -51 19 -66 10 -15 24 -44 31 -65 7
-22 18 -51 26 -65 8 -15 14 -36 14 -47 0 -11 6 -29 14 -40 7 -11 17 -36 21
-55 4 -19 18 -45 31 -57 16 -15 24 -33 24 -55 l0 -33 -25 30 c-13 17 -24 35
-25 41 0 6 -11 17 -25 24 -14 7 -25 17 -25 22 0 4 -9 8 -20 8 -11 0 -20 5 -20
10 0 6 -8 10 -17 10 -10 0 -30 7 -46 15 -15 7 -62 17 -106 21 -82 6 -110 -1
-142 -38 -22 -25 -36 -23 -52 8 -10 18 -16 23 -21 15 -13 -21 -43 50 -44 104
-1 32 -7 54 -17 61 -8 6 -12 14 -8 17 3 4 -1 7 -10 7 -19 0 -25 -21 -30 -113
-3 -61 -6 -70 -34 -95 -18 -15 -33 -36 -35 -47 -5 -32 -41 -30 -71 4 -15 17
-27 35 -27 41 0 16 -85 16 -106 -1 -5 -4 -20 -6 -32 -3 -28 8 -122 -14 -144
-34 -10 -8 -18 -12 -18 -7 0 4 -18 -15 -40 -43 -22 -27 -40 -55 -40 -61 0 -6
-4 -11 -9 -11 -5 0 -13 -9 -16 -20 -7 -23 -35 -27 -35 -6 0 8 -5 16 -11 18
-21 7 12 157 53 246 21 45 43 82 48 82 6 0 10 4 10 9 0 15 -54 20 -96 10 -21
-5 -46 -11 -54 -13 -8 -2 -14 -10 -12 -17 1 -8 -9 0 -23 16 -14 17 -25 33 -25
38 0 4 -8 7 -18 7 -10 0 -24 6 -31 13 -11 10 -14 10 -18 0 -3 -7 -8 -13 -13
-13 -4 0 -3 10 3 23 11 24 49 47 78 47 9 0 19 7 23 15 7 20 29 19 75 -4 35
-18 77 -19 91 -2 7 10 129 67 180 86 32 12 102 19 247 25 111 4 207 12 214 16
19 11 138 20 185 13 22 -3 66 -16 97 -28z m1557 -81 c0 -5 -4 -10 -10 -10 -5
0 -10 5 -10 10 0 6 5 10 10 10 6 0 10 -4 10 -10z m-1536 -531 c-8 -14 -24 -10
-24 6 0 9 6 12 15 9 8 -4 12 -10 9 -15z m-776 -67 c3 -9 -2 -13 -14 -10 -9 1
-19 9 -22 16 -3 9 2 13 14 10 9 -1 19 -9 22 -16z m-183 -185 c7 -21 20 -46 29
-56 9 -10 16 -26 16 -35 0 -10 11 -31 25 -48 14 -16 25 -40 25 -52 0 -22 36
-61 74 -81 29 -15 31 -35 6 -42 -21 -6 -21 -6 7 -18 32 -14 56 -72 48 -116
-14 -66 -17 -129 -8 -129 6 0 13 -9 16 -20 4 -15 0 -20 -14 -20 -10 0 -19 -5
-19 -11 0 -6 -8 -21 -18 -34 -21 -26 -21 -35 -2 -117 9 -41 18 -58 29 -58 9 0
35 -19 58 -43 23 -23 64 -53 90 -67 51 -27 110 -70 96 -70 -4 0 -1 -6 8 -13
19 -15 30 -55 17 -63 -5 -3 -1 -12 9 -20 17 -13 17 -15 1 -28 -20 -15 -24 -27
-7 -23 6 1 16 -6 22 -15 13 -20 -2 -71 -39 -130 -22 -34 -22 -38 -7 -47 14 -7
9 -11 -25 -20 -25 -7 -42 -18 -42 -26 0 -8 -4 -15 -10 -15 -5 0 -10 -9 -10
-20 0 -13 6 -19 18 -18 31 3 82 -14 82 -27 0 -13 28 -30 42 -27 5 1 7 -1 6 -6
-3 -17 15 -62 26 -62 7 0 12 -17 13 -42 1 -31 -1 -37 -7 -23 -10 25 -13 15
-30 -75 -13 -74 -29 -120 -40 -120 -13 0 -21 -32 -12 -44 12 -15 26 -67 23
-86 -5 -29 -36 -48 -81 -51 -87 -4 -94 -1 -165 66 -62 58 -79 68 -150 89 -86
26 -238 36 -250 16 -3 -6 -10 -8 -15 -5 -15 9 -28 -27 -31 -84 -2 -41 1 -56
14 -66 9 -7 17 -20 17 -29 0 -9 7 -16 15 -16 9 0 18 -8 22 -17 3 -10 15 -28
27 -41 14 -16 20 -33 17 -54 -2 -27 0 -30 19 -25 17 4 19 3 10 -8 -7 -8 -8
-20 -4 -26 4 -7 3 -9 -4 -5 -6 3 -13 -7 -18 -26 -4 -19 -9 -27 -12 -19 -3 8
-19 29 -37 46 -17 18 -39 48 -48 67 -9 19 -23 41 -32 48 -8 7 -15 16 -15 21 0
4 -10 19 -22 33 -13 14 -39 44 -58 67 -19 22 -40 46 -45 52 -29 32 -45 64 -45
89 0 16 -4 28 -9 28 -12 0 -44 138 -37 157 7 16 -13 83 -25 83 -19 0 -49 225
-52 390 -2 125 0 143 27 225 41 129 63 168 138 245 65 65 69 72 87 150 23 94
55 166 82 183 11 7 19 21 19 33 0 52 71 28 96 -32 13 -32 12 -124 -3 -164 -15
-40 -11 -64 13 -82 13 -11 24 -25 24 -31 0 -7 8 -17 19 -24 15 -9 17 -19 12
-55 -9 -65 -3 -98 19 -98 25 0 28 15 18 100 -4 41 -7 122 -6 180 2 58 -1 115
-5 127 -6 16 -3 27 13 43 19 19 20 40 1 40 -11 0 -101 88 -101 99 0 5 -6 11
-12 13 -16 6 -19 192 -5 223 15 32 40 56 55 53 8 -2 20 -20 27 -41z m655 -45
c0 -12 25 -23 65 -28 85 -11 142 -30 165 -54 28 -27 53 -108 76 -245 20 -122
19 -133 -12 -127 -22 4 -24 8 -19 33 7 29 -12 89 -27 89 -5 0 -8 7 -8 16 0 27
-30 47 -75 48 -26 2 -52 10 -63 20 -11 9 -25 16 -33 14 -7 -2 -22 19 -34 50
-12 29 -29 58 -37 65 -9 6 -18 19 -21 27 -4 10 -6 8 -6 -7 -1 -12 -13 -31 -28
-42 -14 -12 -23 -24 -20 -28 4 -3 2 -12 -4 -19 -7 -8 -7 -14 0 -19 7 -4 3 -17
-11 -35 -20 -28 -23 -29 -40 -13 -25 23 -22 48 7 61 29 13 31 27 10 49 -12 12
-13 18 -4 29 7 8 13 33 13 56 1 23 7 43 14 46 7 2 12 10 12 18 0 14 12 18 38
15 6 -1 12 3 12 9 0 7 6 5 15 -4 8 -8 15 -19 15 -24z m-300 -432 c0 -34 -4
-60 -10 -60 -6 0 -8 -11 -4 -26 5 -20 4 -25 -5 -19 -8 5 -11 19 -7 40 4 18 2
45 -4 61 -8 20 -8 30 -1 32 6 2 11 10 11 18 0 8 5 14 10 14 6 0 10 -27 10 -60z
m405 40 c3 -11 12 -20 19 -20 23 0 40 -28 27 -44 -10 -12 -16 -12 -39 0 -15 8
-32 14 -38 14 -6 0 -17 6 -23 14 -10 12 -8 19 8 35 26 26 38 26 46 1z m-1317
-163 c4 -21 -30 -24 -47 -3 -9 11 -9 15 1 19 22 9 43 2 46 -16z m617 -1387 c3
-5 17 -10 31 -10 14 0 50 -12 81 -26 46 -22 59 -24 79 -15 21 9 28 8 49 -14
14 -13 25 -20 25 -15 0 24 15 7 17 -19 l2 -29 -60 24 c-34 13 -82 24 -107 26
-49 2 -122 31 -122 48 0 6 -9 10 -19 10 -10 0 -21 7 -25 15 -4 11 1 15 19 15
13 0 27 -4 30 -10z m1187 -94 c6 4 14 0 19 -7 11 -18 12 -52 0 -45 -5 3 -11
-13 -15 -36 -4 -23 -17 -52 -29 -64 -12 -13 -32 -33 -44 -46 -13 -13 -23 -33
-23 -45 0 -29 -28 -57 -73 -72 -86 -29 -128 19 -86 99 12 22 25 37 30 34 5 -3
9 2 9 10 0 8 18 32 41 53 40 37 55 47 112 74 21 9 27 20 27 43 1 26 2 28 11
13 6 -9 15 -14 21 -11z m35 2 c-3 -8 -6 -5 -6 6 -1 11 2 17 5 13 3 -3 4 -12 1
-19z m-1353 -290 c-3 -4 2 -8 10 -8 9 0 16 -6 16 -14 0 -8 8 -21 18 -28 23
-17 55 -85 48 -104 -3 -8 1 -14 9 -14 20 0 19 -15 -2 -36 -10 -10 -19 -21 -19
-26 -1 -4 -2 -12 -3 -18 0 -5 -4 -9 -8 -9 -5 1 -10 0 -13 -1 -23 -9 -51 -6
-104 12 -83 27 -145 26 -169 -4 -12 -14 -16 -29 -12 -42 20 -63 15 -95 -22
-134 -7 -7 -13 -20 -13 -27 0 -18 -37 -38 -56 -31 -8 3 -14 19 -14 38 0 25 6
36 23 43 12 6 23 21 25 33 3 22 1 23 -27 17 -29 -6 -31 -5 -31 24 0 19 10 42
28 62 82 93 99 109 118 109 22 0 94 70 94 91 0 5 4 8 9 5 4 -3 16 12 27 33 19
40 54 64 66 47 4 -6 4 -14 2 -18z m1047 -105 c1 -10 1 -31 0 -48 0 -16 0 -39
1 -50 1 -11 2 -44 2 -72 1 -29 6 -54 11 -56 6 -2 0 -2 -12 0 -13 2 -23 -1 -23
-6 0 -5 -21 -12 -46 -16 -34 -5 -44 -10 -40 -21 8 -21 -17 -17 -31 5 -10 16
-9 30 2 67 8 26 12 51 9 56 -10 15 28 78 47 78 14 0 19 7 19 26 0 21 4 25 20
21 15 -4 20 0 20 14 0 24 20 25 21 2z m-1021 -342 c0 -25 -14 -41 -36 -41 -27
0 -28 3 -14 31 11 19 50 27 50 10z m881 -50 c12 -60 -22 -109 -56 -81 -20 17
-20 90 0 90 9 0 12 6 8 16 -4 12 0 15 18 12 17 -2 25 -11 30 -37z m244 -92
c-5 -37 -10 -45 -17 -27 -5 13 7 58 16 58 2 0 3 -14 1 -31z m-102 4 c18 -10
34 -19 36 -20 2 -1 0 -18 -3 -37 -6 -31 -10 -35 -34 -32 -58 6 -95 45 -57 60
8 3 15 15 15 26 0 24 3 25 43 3z"/>
<path d="M4080 12577 c0 -20 40 -41 53 -28 8 8 6 11 -6 11 -9 0 -17 4 -17 9 0
5 -7 11 -15 15 -8 3 -15 0 -15 -7z"/>
<path d="M5003 12553 c9 -2 23 -2 30 0 6 3 -1 5 -18 5 -16 0 -22 -2 -12 -5z"/>
<path d="M3720 12440 c0 -22 5 -40 10 -40 6 0 10 18 10 40 0 22 -4 40 -10 40
-5 0 -10 -18 -10 -40z"/>
<path d="M3600 12370 c0 -28 2 -30 40 -30 38 0 40 2 40 30 0 28 -2 30 -40 30
-38 0 -40 -2 -40 -30z"/>
<path d="M3680 11496 c0 -8 7 -16 15 -20 8 -3 15 -11 15 -18 0 -16 38 -41 50
-33 10 6 2 19 -40 60 -28 28 -40 31 -40 11z"/>
<path d="M2850 10295 c-7 -8 -9 -22 -6 -31 6 -16 8 -15 21 2 26 35 13 62 -15
29z"/>
<path d="M2791 9354 c0 -11 3 -14 6 -6 3 7 2 16 -1 19 -3 4 -6 -2 -5 -13z"/>
<path d="M2922 9184 c4 -21 22 -23 26 -1 2 10 -3 17 -13 17 -10 0 -15 -6 -13
-16z"/>
<path d="M2840 9180 c0 -5 5 -10 11 -10 5 0 7 5 4 10 -3 6 -8 10 -11 10 -2 0
-4 -4 -4 -10z"/>
<path d="M3310 15960 c0 -5 5 -10 11 -10 5 0 7 5 4 10 -3 6 -8 10 -11 10 -2 0
-4 -4 -4 -10z"/>
<path d="M3429 15960 c-1 -3 -3 -21 -4 -40 -2 -19 -8 -47 -14 -63 -12 -30 -42
-48 -49 -29 -5 17 -22 15 -22 -3 0 -8 -4 -15 -10 -15 -17 0 -11 25 10 38 13 8
20 23 20 41 0 16 5 31 12 33 7 3 8 10 3 17 -5 10 -11 5 -20 -17 -7 -16 -23
-33 -35 -37 -15 -5 -20 -13 -17 -26 3 -10 1 -19 -4 -19 -5 0 -9 -11 -9 -25 0
-15 6 -25 15 -25 8 0 22 -14 31 -31 9 -18 19 -27 23 -22 9 15 99 23 104 9 3
-6 2 12 -1 39 -3 28 -9 52 -13 53 -24 10 -4 22 36 22 25 0 45 3 45 8 0 4 -20
6 -45 4 -42 -4 -45 -3 -45 21 0 14 6 27 13 30 9 3 7 10 -5 23 -10 10 -19 16
-19 14z m-41 -188 c2 -7 -7 -12 -23 -12 -24 0 -26 2 -15 15 14 17 31 16 38 -3z"/>
<path d="M3561 15870 c-8 -4 -10 -13 -7 -19 5 -7 -1 -11 -13 -11 -16 0 -21 -6
-21 -26 0 -21 4 -25 23 -22 14 2 23 11 25 26 2 12 8 22 13 22 11 0 12 27 1 34
-4 2 -14 1 -21 -4z"/>
<path d="M3621 15854 c0 -11 3 -14 6 -6 3 7 2 16 -1 19 -3 4 -6 -2 -5 -13z"/>
<path d="M1751 15835 c1 -19 18 -51 18 -35 0 8 -4 22 -9 30 -5 8 -9 11 -9 5z"/>
<path d="M3493 15800 c0 -25 2 -35 4 -22 2 12 2 32 0 45 -2 12 -4 2 -4 -23z"/>
<path d="M3048 15753 c7 -3 16 -2 19 1 4 3 -2 6 -13 5 -11 0 -14 -3 -6 -6z"/>
<path d="M3120 15750 c0 -5 7 -7 15 -4 8 4 15 8 15 10 0 2 -7 4 -15 4 -8 0
-15 -4 -15 -10z"/>
<path d="M3600 15749 c0 -5 5 -7 10 -4 6 3 10 8 10 11 0 2 -4 4 -10 4 -5 0
-10 -5 -10 -11z"/>
<path d="M3520 15730 c0 -5 5 -10 11 -10 5 0 7 5 4 10 -3 6 -8 10 -11 10 -2 0
-4 -4 -4 -10z"/>
<path d="M3665 15690 c-3 -5 -1 -10 4 -10 6 0 11 5 11 10 0 6 -2 10 -4 10 -3
0 -8 -4 -11 -10z"/>
<path d="M1540 15657 c0 -20 31 -30 108 -32 62 -2 63 -2 43 16 -27 26 -151 39
-151 16z"/>
<path d="M1060 15590 c0 -5 7 -10 15 -10 8 0 15 5 15 10 0 6 -7 10 -15 10 -8
0 -15 -4 -15 -10z"/>
<path d="M880 15568 c0 -12 1 -19 3 -17 1 2 9 12 16 22 12 14 11 17 -3 17 -10
0 -16 -8 -16 -22z"/>
<path d="M2038 15573 c7 -3 16 -2 19 1 4 3 -2 6 -13 5 -11 0 -14 -3 -6 -6z"/>
<path d="M360 15510 c0 -5 4 -10 9 -10 6 0 13 5 16 10 3 6 -1 10 -9 10 -9 0
-16 -4 -16 -10z"/>
<path d="M848 15513 c7 -3 16 -2 19 1 4 3 -2 6 -13 5 -11 0 -14 -3 -6 -6z"/>
<path d="M2560 15466 c0 -9 5 -16 10 -16 6 0 10 4 10 9 0 6 -4 13 -10 16 -5 3
-10 -1 -10 -9z"/>
<path d="M340 15455 c0 -8 5 -15 10 -15 6 0 10 7 10 15 0 8 -4 15 -10 15 -5 0
-10 -7 -10 -15z"/>
<path d="M0 14205 l0 -155 52 4 c29 3 58 0 65 -5 15 -13 33 -3 33 17 0 8 4 13
9 10 5 -4 7 3 4 14 -4 13 0 20 9 20 29 0 84 -23 119 -50 31 -25 40 -27 78 -20
51 9 58 15 41 35 -7 8 -10 22 -6 30 3 9 0 15 -9 15 -8 0 -15 9 -15 20 0 16 -7
20 -30 20 -41 0 -40 29 3 54 l32 19 -30 8 c-16 5 -40 6 -53 2 -28 -7 -47 14
-31 34 8 9 -4 13 -51 19 -34 4 -68 13 -76 21 -14 14 -52 18 -104 11 -19 -2
-24 1 -22 15 2 9 -2 17 -8 17 -6 0 -10 -54 -10 -155z m35 86 c3 -5 1 -12 -5
-16 -5 -3 -10 1 -10 9 0 18 6 21 15 7z m60 -38 c-7 -17 -8 -17 -15 2 -5 11 -9
27 -9 35 -1 12 2 11 15 -2 11 -11 14 -23 9 -35z m145 13 c0 -10 -10 -14 -29
-14 -15 1 -33 -2 -40 -6 -6 -4 -11 -1 -11 8 0 10 13 16 38 19 20 2 38 4 40 5
1 1 2 -4 2 -12z m-92 -14 c6 -18 -15 -14 -22 4 -4 10 -1 14 6 12 6 -2 14 -10
16 -16z m49 -34 c-3 -8 -6 -5 -6 6 -1 11 2 17 5 13 3 -3 4 -12 1 -19z m43 6
c0 -8 -4 -12 -10 -9 -5 3 -10 10 -10 16 0 5 5 9 10 9 6 0 10 -7 10 -16z m-187
-151 c-7 -2 -19 -2 -25 0 -7 3 -2 5 12 5 14 0 19 -2 13 -5z"/>
<path d="M218 14034 c-10 -9 3 -35 13 -28 5 3 9 -2 9 -11 0 -9 4 -14 9 -11 14
9 7 51 -9 54 -9 1 -19 0 -22 -4z"/>
<path d="M7125 13851 c-33 -9 -69 -21 -80 -27 -11 -7 -39 -15 -62 -19 -24 -4
-45 -10 -48 -15 -3 -4 -20 -11 -39 -14 -45 -9 -39 -37 8 -35 17 0 42 -2 56 -6
14 -4 64 -13 112 -20 47 -7 96 -16 107 -20 20 -6 21 -3 21 84 0 50 -3 90 -7
90 -5 -1 -35 -9 -68 -18z"/>
<path d="M0 13749 c0 -5 5 -7 10 -4 5 3 10 8 10 11 0 2 -4 4 -10 4 -5 0 -10
-5 -10 -11z"/>
<path d="M2022 13630 c-13 -11 -27 -32 -31 -47 -8 -31 -48 -44 -62 -21 -6 9
-9 9 -9 1 0 -6 5 -15 10 -18 18 -11 10 -25 -14 -25 -13 0 -35 -6 -50 -13 l-26
-14 28 -13 c15 -7 36 -14 46 -15 11 -1 22 -7 24 -13 2 -7 22 -12 44 -12 31 0
45 -6 60 -25 23 -29 38 -32 39 -7 0 14 2 13 11 -5 13 -27 59 -50 119 -59 24
-4 50 -11 56 -16 7 -6 20 -8 29 -4 9 3 29 -5 48 -19 18 -14 44 -25 57 -25 14
0 31 -6 38 -12 11 -10 14 -10 18 0 3 6 17 11 31 11 17 -1 21 -3 10 -6 -22 -5
-24 -23 -3 -23 8 0 24 -6 35 -12 16 -10 24 -10 39 -1 15 10 20 9 25 -2 3 -8
13 -15 22 -15 10 0 14 5 10 15 -3 8 -3 22 0 30 5 12 10 10 25 -9 10 -13 19
-31 19 -40 0 -26 40 -20 41 7 1 21 1 21 8 -3 5 -16 14 -24 26 -23 10 1 24 -5
29 -13 15 -19 38 -3 40 27 1 31 26 35 53 9 26 -23 80 -27 107 -7 17 12 17 14
2 20 -21 8 -21 37 2 38 13 0 14 2 2 6 -8 3 -18 10 -21 15 -3 5 -40 10 -82 10
-51 1 -74 4 -70 12 11 18 12 55 1 62 -14 9 -58 -16 -58 -33 0 -32 -39 4 -67
62 -9 19 -23 37 -30 39 -8 3 -12 2 -9 -3 4 -5 -3 -7 -14 -4 -11 3 -20 14 -20
25 0 10 -4 17 -9 13 -5 -3 -12 -1 -16 5 -3 5 -27 19 -53 30 -26 12 -60 28 -76
37 -15 8 -44 18 -64 20 -19 3 -64 16 -100 30 -55 20 -202 53 -237 52 -5 0 -20
-8 -33 -19z m3 -40 c-3 -5 -10 -10 -16 -10 -5 0 -9 5 -9 10 0 6 7 10 16 10 8
0 12 -4 9 -10z m55 -154 c0 -3 -4 -8 -10 -11 -5 -3 -10 -1 -10 4 0 6 5 11 10
11 6 0 10 -2 10 -4z m630 -96 c0 -5 -9 -10 -20 -10 -11 0 -20 5 -20 10 0 6 9
10 20 10 11 0 20 -4 20 -10z m10 -45 c0 -8 -4 -15 -10 -15 -5 0 -10 7 -10 15
0 8 5 15 10 15 6 0 10 -7 10 -15z m160 -15 c0 -13 -11 -13 -30 0 -12 8 -11 10
8 10 12 0 22 -4 22 -10z m57 -7 c-4 -3 -2 -12 5 -20 9 -11 8 -18 -5 -31 -16
-15 -18 -15 -34 1 -16 15 -16 18 2 37 10 11 23 20 28 20 6 0 7 -3 4 -7z"/>
<path d="M620 13512 c0 -19 34 -62 50 -62 14 0 18 23 8 43 -5 10 -16 16 -24
13 -8 -3 -14 1 -14 9 0 8 -4 15 -10 15 -5 0 -10 -8 -10 -18z"/>
<path d="M0 13420 l0 -99 38 3 c20 2 50 -3 66 -11 15 -8 37 -13 47 -10 24 6
69 -29 69 -53 0 -10 -8 -21 -17 -23 -14 -4 -13 -5 4 -6 12 0 24 -7 26 -13 4
-10 6 -10 6 0 1 6 12 12 26 12 14 0 25 5 25 11 0 5 15 16 34 24 19 8 37 19 41
25 4 7 12 7 25 0 13 -7 21 -7 25 1 12 18 45 -21 45 -53 0 -26 -24 -41 -32 -19
-1 5 -9 3 -16 -5 -11 -12 -10 -14 4 -14 16 0 43 -26 44 -43 0 -4 -9 -3 -20 3
-14 8 -26 8 -41 -1 -25 -13 -40 1 -32 32 4 14 0 19 -15 19 -15 0 -22 -7 -24
-27 -3 -29 -28 -45 -28 -18 0 13 -7 16 -30 13 -19 -3 -30 0 -30 7 0 7 -14 15
-31 19 -47 9 -53 8 -39 -9 21 -25 -1 -37 -34 -20 -39 21 -63 19 -69 -6 -7 -28
-32 -19 -32 12 0 27 -11 49 -26 49 -5 0 -9 -148 -9 -378 l0 -378 37 -1 c21 -1
39 -6 41 -12 6 -19 32 -12 32 9 0 11 6 20 14 20 9 0 12 8 8 27 -4 21 -2 25 12
20 9 -4 16 -1 16 4 0 7 10 9 28 5 15 -4 51 -8 80 -11 55 -4 67 6 34 32 -15 12
-14 13 11 7 22 -5 27 -3 27 12 1 18 1 18 15 0 12 -15 22 -18 57 -12 30 4 39 3
28 -4 -12 -7 -7 -10 18 -10 19 0 35 -6 38 -14 5 -12 58 -34 59 -24 1 2 12 -4
25 -13 31 -20 120 -35 120 -19 0 13 50 2 67 -16 7 -7 22 -16 34 -19 11 -4 24
-17 29 -29 10 -27 104 -54 125 -36 14 11 45 3 45 -11 0 -5 8 -9 18 -9 10 0 35
-9 57 -20 21 -11 41 -18 43 -15 10 10 -9 35 -28 35 -12 0 -20 7 -20 16 0 13 3
14 15 4 8 -6 19 -9 25 -5 13 8 13 52 0 60 -5 3 -10 15 -10 26 0 19 -14 26 -23
12 -2 -5 -3 -3 -1 3 4 19 -45 55 -82 61 -47 8 -43 23 6 23 56 0 55 30 -2 56
-23 10 -43 25 -44 32 -1 7 0 8 3 2 9 -18 25 -11 18 9 -3 11 1 26 10 35 30 29
92 -3 110 -56 4 -10 11 -18 16 -18 5 0 9 -9 9 -19 0 -28 31 -36 37 -10 4 13 8
16 13 9 5 -8 19 -8 50 -1 24 5 48 8 52 5 4 -3 8 2 8 10 0 10 -6 13 -15 10 -8
-4 -15 -1 -15 5 0 6 -12 8 -32 4 -22 -4 -29 -3 -24 5 5 8 2 10 -8 6 -16 -6
-65 41 -66 63 0 18 -39 41 -61 36 -13 -4 -19 0 -19 11 0 9 5 16 10 16 6 0 10
7 10 15 0 8 -4 15 -10 15 -5 0 -10 5 -10 10 0 6 6 10 14 10 8 0 17 8 21 17 6
16 8 15 24 -6 12 -16 21 -20 25 -12 13 20 104 13 126 -9 24 -24 30 -25 30 -5
0 18 26 20 34 3 5 -10 7 -10 12 0 9 18 38 15 68 -9 15 -11 33 -19 40 -16 20 8
28 -4 14 -20 -9 -11 -9 -17 3 -24 26 -17 63 -23 67 -11 5 15 88 16 97 2 3 -5
17 -10 29 -10 19 0 22 -4 19 -25 -4 -20 0 -25 23 -31 16 -4 34 -10 39 -14 6
-4 25 -10 43 -13 29 -6 31 -5 23 11 -16 29 2 46 42 38 25 -5 38 -2 47 9 7 8
18 15 26 15 19 0 -2 56 -24 64 -31 12 -68 35 -95 60 -14 13 -29 21 -32 17 -4
-3 -13 2 -20 12 -9 13 -20 17 -34 12 -14 -4 -23 -1 -27 8 -3 9 -20 20 -37 27
-18 6 -40 16 -50 21 -9 5 -28 7 -42 3 -14 -3 -33 -3 -42 1 -10 5 -27 7 -38 6
-12 -1 -36 5 -55 13 -28 12 -32 16 -17 21 9 4 24 5 32 1 9 -3 15 0 15 9 0 14
-16 18 -70 17 -60 -1 -62 -1 -55 -23 7 -20 4 -21 -22 -16 -17 3 -34 2 -39 -3
-6 -6 -11 2 -12 22 -1 17 -5 35 -8 39 -7 12 -34 11 -34 -1 0 -5 5 -10 10 -10
6 0 10 -4 10 -8 0 -4 -16 -8 -35 -9 -22 -1 -35 4 -35 12 0 7 -9 15 -20 18 -13
3 -18 10 -14 21 3 9 1 16 -6 16 -6 0 -8 -5 -4 -11 5 -9 -1 -10 -22 -5 -16 3
-42 9 -58 12 -59 11 -76 23 -92 64 -12 30 -20 38 -28 30 -7 -7 -7 -16 2 -31
16 -25 8 -39 -24 -39 -28 0 -31 8 -6 26 9 7 12 14 6 14 -6 0 -9 13 -6 31 4 24
9 30 23 26 17 -5 23 4 20 25 0 4 12 3 27 -2 49 -15 92 -20 92 -10 0 17 36 11
54 -9 9 -10 18 -31 20 -47 3 -26 26 -48 26 -25 0 16 21 13 42 -6 17 -15 18
-14 18 15 0 18 5 33 13 33 74 7 109 5 168 -11 38 -10 72 -14 75 -9 7 12 62 11
66 -1 2 -7 15 -6 36 2 27 11 34 10 41 -1 5 -7 14 -11 20 -7 6 4 9 2 6 -6 -6
-17 52 -53 99 -61 32 -5 40 -2 73 31 22 22 38 31 41 24 2 -7 9 -12 15 -12 7 0
6 6 -3 15 -16 15 -60 10 -60 -6 0 -5 -7 -9 -16 -9 -10 0 -14 6 -10 15 3 8 2
14 -2 12 -4 -1 -20 10 -36 24 -19 18 -43 28 -73 32 -25 3 -49 10 -53 16 -4 7
-29 11 -61 10 -51 -1 -139 21 -166 43 -9 7 -13 7 -13 -1 0 -8 -5 -8 -17 -1
-10 5 -29 15 -43 20 -14 6 -36 17 -50 25 -14 8 -37 15 -52 15 -15 0 -30 5 -33
10 -10 16 -35 12 -29 -5 4 -8 1 -15 -5 -15 -6 0 -11 9 -11 19 0 20 -25 35 -42
25 -5 -3 -16 2 -23 12 -13 18 -14 18 -15 2 0 -23 -68 -26 -76 -3 -4 8 -10 15
-16 15 -5 0 -7 -4 -3 -9 3 -6 -9 -7 -30 -4 -23 4 -35 2 -35 -6 0 -23 -30 -10
-36 16 -5 19 -2 30 10 39 16 11 15 14 -9 39 -19 18 -35 25 -54 23 -22 -3 -26
-8 -26 -36 0 -41 13 -52 31 -27 8 10 17 15 21 10 5 -4 2 -10 -4 -12 -15 -5
-18 -33 -3 -33 5 0 7 -7 4 -15 -8 -20 -51 -19 -71 1 -12 12 -18 13 -24 3 -6
-10 -11 -10 -23 0 -9 7 -48 17 -88 21 -40 5 -93 15 -118 24 -25 8 -61 16 -80
17 -67 2 -128 21 -133 41 -10 37 -132 69 -176 46 -19 -10 -25 -10 -28 0 -3 6
-20 12 -39 12 l-34 0 0 -100z m1796 -657 c17 -17 17 -18 -4 -21 -11 -2 -31 2
-44 9 -22 12 -22 12 -3 20 29 11 32 11 51 -8z m-69 -39 c-3 -3 -12 -4 -19 -1
-8 3 -5 6 6 6 11 1 17 -2 13 -5z m-1217 -114 c12 -8 11 -10 -7 -10 -13 0 -23
5 -23 10 0 13 11 13 30 0z m-450 -60 c0 -5 -2 -10 -4 -10 -3 0 -8 5 -11 10 -3
6 -1 10 4 10 6 0 11 -4 11 -10z m50 -20 c0 -5 -2 -10 -4 -10 -3 0 -8 5 -11 10
-3 6 -1 10 4 10 6 0 11 -4 11 -10z m530 -30 c0 -5 -2 -10 -4 -10 -3 0 -8 5
-11 10 -3 6 -1 10 4 10 6 0 11 -4 11 -10z m313 -52 c17 -7 27 -17 25 -27 -5
-25 -38 -25 -55 -1 -8 12 -21 19 -29 16 -8 -3 -14 0 -14 7 0 16 36 18 73 5z
m81 -24 c-5 -19 -4 -25 5 -20 6 4 11 2 11 -4 0 -8 -9 -10 -27 -5 -33 8 -42 16
-25 22 6 3 12 11 12 19 0 8 7 14 15 14 12 0 14 -7 9 -26z"/>
<path d="M710 13456 c0 -8 4 -17 9 -20 5 -4 7 3 4 14 -6 23 -13 26 -13 6z"/>
<path d="M2845 13340 c-3 -5 3 -10 14 -10 12 0 21 5 21 10 0 6 -6 10 -14 10
-8 0 -18 -4 -21 -10z"/>
<path d="M160 13250 c0 -5 5 -10 10 -10 6 0 10 5 10 10 0 6 -4 10 -10 10 -5 0
-10 -4 -10 -10z"/>
<path d="M2995 13200 c-3 -5 -2 -10 4 -10 5 0 16 -3 25 -6 11 -4 16 -1 16 10
0 18 -35 22 -45 6z"/>
<path d="M2842 13188 c-7 -7 -12 -15 -12 -19 0 -11 89 -9 96 2 9 16 -5 24 -18
11 -16 -16 -28 -15 -28 3 0 18 -21 20 -38 3z"/>
<path d="M3052 13189 c2 -6 8 -10 13 -10 5 0 11 4 13 10 2 6 -4 11 -13 11 -9
0 -15 -5 -13 -11z"/>
<path d="M2190 13080 c0 -6 7 -10 15 -10 8 0 15 2 15 4 0 2 -7 6 -15 10 -8 3
-15 1 -15 -4z"/>
<path d="M1358 13043 c7 -3 16 -2 19 1 4 3 -2 6 -13 5 -11 0 -14 -3 -6 -6z"/>
<path d="M1265 13000 c3 -5 8 -10 11 -10 2 0 4 5 4 10 0 6 -5 10 -11 10 -5 0
-7 -4 -4 -10z"/>
<path d="M2070 12780 c0 -5 5 -10 11 -10 5 0 7 5 4 10 -3 6 -8 10 -11 10 -2 0
-4 -4 -4 -10z"/>
<path d="M1974 12745 c-17 -31 -17 -36 -3 -50 18 -18 119 -48 119 -35 0 4 -10
10 -22 14 -17 4 -24 13 -25 36 -1 17 3 30 9 30 6 0 3 9 -7 20 -27 29 -49 25
-71 -15z"/>
<path d="M1400 12690 c20 -13 40 -13 40 0 0 6 -12 10 -27 10 -22 0 -25 -2 -13
-10z"/>
<path d="M1360 12639 c0 -5 5 -7 10 -4 6 3 10 -1 10 -10 0 -8 12 -20 26 -25
33 -13 34 -13 34 5 0 8 -5 15 -11 15 -6 0 -17 7 -25 15 -18 17 -44 20 -44 4z"/>
<path d="M1860 12600 c0 -10 32 -30 49 -30 17 0 13 27 -5 34 -23 9 -44 7 -44
-4z"/>
<path d="M400 12529 c0 -5 5 -7 10 -4 6 3 10 8 10 11 0 2 -4 4 -10 4 -5 0 -10
-5 -10 -11z"/>
<path d="M1635 12531 c-3 -5 0 -13 6 -16 5 -4 8 -13 5 -21 -3 -9 2 -14 14 -14
11 0 20 -5 20 -11 0 -8 5 -8 15 1 18 15 19 7 3 -20 -11 -17 -10 -22 2 -30 11
-7 19 -5 27 6 6 9 17 13 23 9 8 -5 11 2 8 21 -2 22 -12 33 -40 46 -21 9 -38
22 -38 28 0 12 -37 13 -45 1z"/>
<path d="M1308 12465 c2 -14 14 -31 26 -37 11 -6 23 -14 26 -17 9 -11 142 -71
188 -85 15 -5 22 -15 22 -31 0 -13 4 -26 10 -30 5 -3 7 -12 3 -20 -3 -8 0 -15
6 -15 6 0 11 9 11 20 0 11 4 20 9 20 5 0 12 16 16 36 8 46 -13 68 -87 91 -29
9 -62 27 -74 39 -12 12 -39 24 -67 28 -26 4 -49 11 -52 17 -4 5 -14 9 -24 9
-14 0 -17 -6 -13 -25z"/>
<path d="M2100 12465 c0 -8 5 -15 10 -15 6 0 10 7 10 15 0 8 -4 15 -10 15 -5
0 -10 -7 -10 -15z"/>
<path d="M5655 12410 c-3 -5 1 -10 9 -10 9 0 16 5 16 10 0 6 -4 10 -9 10 -6 0
-13 -4 -16 -10z"/>
<path d="M6682 12311 c-14 -29 -15 -41 -3 -59 6 -10 16 -6 40 18 17 17 31 33
31 35 0 2 -13 10 -28 18 -27 13 -29 12 -40 -12z"/>
<path d="M6238 12323 c-46 -5 -49 -18 -7 -27 45 -9 46 -8 52 14 3 11 2 19 -1
18 -4 -1 -24 -3 -44 -5z"/>
<path d="M5840 12304 c0 -8 5 -12 10 -9 6 4 8 11 5 16 -9 14 -15 11 -15 -7z"/>
<path d="M5804 12296 c-8 -22 3 -33 18 -18 9 9 9 15 0 24 -9 9 -13 7 -18 -6z"/>
<path d="M5897 12294 c-8 -8 1 -24 14 -24 5 0 9 7 9 15 0 15 -12 20 -23 9z"/>
<path d="M5710 12275 c0 -8 9 -15 20 -15 11 0 20 7 20 15 0 8 -9 15 -20 15
-11 0 -20 -7 -20 -15z"/>
<path d="M5760 12260 c0 -16 4 -30 8 -30 5 0 7 14 4 30 -2 17 -6 30 -8 30 -2
0 -4 -13 -4 -30z"/>
<path d="M5840 12250 c0 -6 7 -10 15 -10 8 0 15 2 15 4 0 2 -7 6 -15 10 -8 3
-15 1 -15 -4z"/>
<path d="M5885 12230 c3 -5 8 -10 11 -10 2 0 4 5 4 10 0 6 -5 10 -11 10 -5 0
-7 -4 -4 -10z"/>
<path d="M5928 12233 c7 -3 16 -2 19 1 4 3 -2 6 -13 5 -11 0 -14 -3 -6 -6z"/>
<path d="M0 12189 c0 -11 4 -17 10 -14 12 8 40 -12 40 -28 0 -7 -4 -7 -12 1
-21 21 -34 13 -35 -25 -1 -20 2 -32 5 -26 11 16 50 25 57 13 12 -19 26 -11 15
9 -15 28 -13 34 10 28 11 -3 22 -1 25 3 8 12 -45 46 -82 53 -29 6 -33 4 -33
-14z"/>
<path d="M1600 12180 c0 -11 4 -20 9 -20 5 0 7 9 4 20 -3 11 -7 20 -9 20 -2 0
-4 -9 -4 -20z"/>
<path d="M498 12155 c13 -9 26 -14 29 -11 8 8 3 12 -27 21 l-25 7 23 -17z"/>
<path d="M6320 12150 c0 -5 -7 -10 -15 -10 -9 0 -12 -6 -9 -15 4 -8 0 -22 -7
-31 -11 -13 -9 -14 17 -8 40 9 45 13 42 32 -1 10 1 23 5 30 6 8 2 12 -12 12
-12 0 -21 -4 -21 -10z"/>
<path d="M6365 12129 c-4 -6 -4 -13 -1 -16 8 -8 36 5 36 17 0 13 -27 13 -35
-1z"/>
<path d="M5165 12120 c3 -5 13 -10 21 -10 8 0 14 5 14 10 0 6 -9 10 -21 10
-11 0 -17 -4 -14 -10z"/>
<path d="M125 12090 c-4 -6 3 -10 14 -10 25 0 27 6 6 13 -8 4 -17 2 -20 -3z"/>
<path d="M6755 12090 c-4 -6 5 -10 20 -10 15 0 24 4 20 10 -3 6 -12 10 -20 10
-8 0 -17 -4 -20 -10z"/>
<path d="M18 12082 c-15 -3 -18 -15 -18 -71 0 -67 0 -67 35 -84 43 -21 41 -21
49 -1 3 8 2 12 -3 9 -5 -3 -13 0 -17 6 -15 25 21 25 67 1 26 -15 51 -24 54
-21 9 10 -6 39 -21 39 -8 0 -14 5 -14 10 0 6 5 10 10 10 6 0 10 5 10 10 0 6
-7 10 -15 10 -8 0 -15 -5 -15 -11 0 -5 -5 -7 -11 -3 -8 4 -7 9 2 15 10 6 7 13
-12 28 -29 25 -35 25 -43 6 -3 -8 -12 -15 -21 -15 -19 0 -20 17 -1 22 22 5
-14 44 -36 40z m89 -78 c-3 -3 -12 -4 -19 -1 -8 3 -5 6 6 6 11 1 17 -2 13 -5z"/>
<path d="M6120 12016 c0 -9 5 -16 10 -16 6 0 10 4 10 9 0 6 -4 13 -10 16 -5 3
-10 -1 -10 -9z"/>
<path d="M280 12012 c0 -4 9 -13 20 -20 11 -7 20 -9 20 -4 0 4 -9 13 -20 20
-11 7 -20 9 -20 4z"/>
<path d="M5745 12010 c-3 -5 -1 -10 4 -10 6 0 11 5 11 10 0 6 -2 10 -4 10 -3
0 -8 -4 -11 -10z"/>
<path d="M195 11990 c-3 -5 -1 -10 4 -10 6 0 11 5 11 10 0 6 -2 10 -4 10 -3 0
-8 -4 -11 -10z"/>
<path d="M330 11988 c0 -18 37 -44 47 -34 4 3 12 1 20 -5 9 -8 13 -8 13 -1 0
14 -35 34 -44 25 -3 -4 -13 2 -21 13 -13 17 -14 17 -15 2z"/>
<path d="M4970 11996 c0 -2 7 -6 15 -10 8 -3 15 -1 15 4 0 6 -7 10 -15 10 -8
0 -15 -2 -15 -4z"/>
<path d="M6163 11987 c0 -7 11 -21 24 -30 23 -18 23 -18 23 13 0 25 -4 30 -23
30 -13 0 -24 -6 -24 -13z"/>
<path d="M6412 11980 c-21 -34 -15 -60 14 -60 24 0 26 2 20 32 -9 43 -19 52
-34 28z"/>
<path d="M6357 11978 c-5 -15 9 -38 25 -38 12 0 10 14 -5 34 -12 16 -15 17
-20 4z"/>
<path d="M6303 11969 c-28 -10 -30 -29 -3 -29 15 0 20 -7 21 -27 1 -25 2 -23
11 10 12 44 3 59 -29 46z"/>
<path d="M230 11955 c0 -6 8 -11 18 -10 9 0 17 5 17 10 0 5 -8 10 -17 10 -10
1 -18 -4 -18 -10z"/>
<path d="M6347 11883 c8 -52 13 -54 13 -5 0 23 -4 42 -9 42 -6 0 -7 -17 -4
-37z"/>
<path d="M270 11899 c0 -19 57 -63 65 -49 9 14 -3 30 -22 30 -9 0 -22 8 -29
18 -11 14 -13 15 -14 1z"/>
<path d="M6382 11885 c0 -16 2 -22 5 -12 2 9 2 23 0 30 -3 6 -5 -1 -5 -18z"/>
<path d="M6480 11900 c0 -5 5 -10 11 -10 5 0 7 5 4 10 -3 6 -8 10 -11 10 -2 0
-4 -4 -4 -10z"/>
<path d="M358 11833 c7 -3 16 -2 19 1 4 3 -2 6 -13 5 -11 0 -14 -3 -6 -6z"/>
<path d="M348 11773 c7 -3 16 -2 19 1 4 3 -2 6 -13 5 -11 0 -14 -3 -6 -6z"/>
</g>
</svg>
